# xmcd
# 
# Track frame offsets:
#     150
#     9951
#     20453
#     30770
#     40190
#     50261
#     60377
#     70199
#     80616
#     90135
#     100460
#     111257
#     121629
#     130971
#     143381
#     152914
#     165078
#     176024
#     187225
#     199383
#     212358
#     225918
#     237102
#     246202
#     255750
#     264838
#     279210
#     289860
# 
# Disc length: 4021
# 
# Revision: 1
# Processed by: cddbd v1.5.2PL0 Copyright (c) Steve Scherf et al.
# Submitted via: BonkEnc v1.0.8
# 
DISCID=590fb31c
DTITLE=The Stanley Brothers - The Early Starday King Years 1958 - 1961 CD 1
DYEAR=0
DGENRE=Country
TTITLE0=Holiday Pickin'
TTITLE1=Gonna Paint The Town
TTITLE2=That Happy Night
TTITLE3=Christmas Is Near
TTITLE4=Love Me Darlin' Just Tonight
TTITLE5=She' More To Be Pitied
TTITLE6=Heaven Seemed So Near
TTITLE7=Your Selfish Heart
TTITLE8=How Mountain Girls Can Love
TTITLE9=The Memory Of Your Smile
TTITLE10=Mastertone March
TTITLE11=Clinch Mountain Backstep
TTITLE12=Midnight Ramble
TTITLE13=Train 45
TTITLE14=Think Of What You've Done
TTITLE15=Keep A Memory
TTITLE16=Old Daniel Prayed
TTITLE17=He Said If I Be Lifted Up
TTITLE18=The Wicked Path Of Sin
TTITLE19=Are You Afraid To Die 
TTITLE20=The White Dove
TTITLE21=How Can We Thank Him
TTITLE22=Mother's Footsteps Guide Me
TTITLE23=That Home Far Away
TTITLE24=My Lord's Gonna Set Me Free
TTITLE25=The Angel Of Death
TTITLE26=Wings Of Angels
TTITLE27=Suwannee River Hoedown
EXTD=
EXTT0=
EXTT1=
EXTT2=
EXTT3=
EXTT4=
EXTT5=
EXTT6=
EXTT7=
EXTT8=
EXTT9=
EXTT10=
EXTT11=
EXTT12=
EXTT13=
EXTT14=
EXTT15=
EXTT16=
EXTT17=
EXTT18=
EXTT19=
EXTT20=
EXTT21=
EXTT22=
EXTT23=
EXTT24=
EXTT25=
EXTT26=
EXTT27=
PLAYORDER=
